# xmcd
#
# Track frame offsets:
#	150
#	19107
#	44958
#	63258
#	82288
#	100430
#	118060
#	136929
#	155594
#	173521
#	191242
#	208807
#	226249
#
# Disc length: 3269
#
# Revision: 2
# Processed by: cddbd v1.5.1PL0 Copyright (c) Steve Scherf et al.
# Submitted via: CDex 1.50
# Normalized: r0:DSETVAR1,TDELIM( - ),TSWAP
#
DISCID=be0cc30d
DTITLE=Various Artist - Smooth Jazz WJJZ 106.1 Tenth Anniversary CD
DYEAR=2003
DGENRE=Jazz
TTITLE0=Gato Barbieri - Europa
TTITLE1=Earth, Wind, and Fire - That's the Way of the World
TTITLE2=Kenny G - G Bop
TTITLE3=US 3 - Cantaloop
TTITLE4=Sade - Paradise
TTITLE5=Dave Koz - Love is on the Way
TTITLE6=David Benoit - Freedom at Midnight
TTITLE7=Spyro Gyra - Morning Dance
TTITLE8=Marvin Gaye - Sexual Healing
TTITLE9=David Sanborn - Spooky
TTITLE10=Boney James - Sweet Thing
TTITLE11=Anita Baker - Giving You the Best That 've Got
TTITLE12=Boz Scaggs - Lowdown
EXTD=YEAR: 2003
EXTT0=
EXTT1=
EXTT2=
EXTT3=
EXTT4=
EXTT5=
EXTT6=
EXTT7=
EXTT8=
EXTT9=
EXTT10=
EXTT11=
EXTT12=
PLAYORDER=
